# xmcd CD database file
#
# Track frame offsets:
#	187
#	21712
#	35182
#	61817
#	75147
#	88295
#	102095
#	116352
#	129875
#	145047
#	159905
#	173202
#
# Disc length: 2488 seconds
#
# Revision: 7
# Processed by: cddbd v1.5.2PL0 Copyright (c) Steve Scherf et al.
# Submitted via: CDex 1.70beta2
#
DISCID=9109b60c
DTITLE=Charlie Parker - Bird: The Complete Charlie Parker On Verve - Disc 2
DYEAR=1990
DGENRE=Jazz
TTITLE0=The Bird
TTITLE1=Repetition
TTITLE2=No Noise - Parts Ⅰ and Ⅱ
TTITLE3=No Noise - Part Ⅱ (Previously Unreleased)
TTITLE4=Mango Mangue
TTITLE5=Okiedoke
TTITLE6=Cardboard
TTITLE7=Visa
TTITLE8=Segment
TTITLE9=Diverse
TTITLE10=Passport (rare)
TTITLE11=Passport (common)
EXTD=YEAR: 1990
EXTT0=
EXTT1=
EXTT2=
EXTT3=
EXTT4=
EXTT5=
EXTT6=
EXTT7=
EXTT8=
EXTT9=
EXTT10=
EXTT11=
PLAYORDER=
